<svg xmlns="http://www.w3.org/2000/svg" width="645.315" height="186.4" viewBox="0 0 645.315 186.4">
  <g id="accor" transform="translate(-177.285 -406.8)">
    <path id="Path_1" data-name="Path 1" d="M788.9,559.5c15.4-2.3,25.2-11.9,25.2-23.8,0-12.6-9.7-23-29-23h-66v78.9h17.6V527.1h44c8.3,0,14,3.7,14,11.4,0,7.1-5.7,12.1-16.2,12.1H752.2V564h9.3c11,0,17.4,2.9,23.1,9.7l15.2,18h22.8L803,568.2c-3.8-4.5-8.2-7.6-14.1-8.7Z" fill="#213f7f"/>
    <path id="Path_2" data-name="Path 2" d="M482.7,530.2c-11.1-10.4-29.9-19.2-51.3-19.2-33.7,0-56.8,16.9-56.8,40.9s23,41.3,56.5,41.3c21.8,0,40.4-7.4,51.7-19l-13-11.1c-8.3,8.3-21.6,15-38.4,15-21.4,0-37-9.8-37-26.3,0-15.9,15.6-25.9,36.6-25.9,17.1,0,30.1,6.6,38.7,15.2l13-10.9Z" fill="#213f7f"/>
    <path id="Path_3" data-name="Path 3" d="M592.8,530.2c-11.1-10.4-29.9-19.2-51.3-19.2-33.7,0-56.8,16.9-56.8,40.9s23,41.3,56.5,41.3c21.8,0,40.4-7.4,51.7-19l-13-11.1c-8.3,8.3-21.6,15-38.3,15-21.4,0-37-9.8-37-26.3,0-15.9,15.6-25.9,36.6-25.9,17.1,0,30.1,6.6,38.7,15.2l12.9-10.9Z" fill="#213f7f"/>
    <path id="Path_4" data-name="Path 4" d="M324,577l9.3-14.2H305.1c-6.1,0-10,.7-14,4.5l27.6-39.6,45.6,63.9h21.1l-56.7-78.9H310.2l-57,78.9h20.4l6-8.8c3.1-4.5,5.7-5.9,10.9-5.9H324Z" fill="#213f7f"/>
    <path id="Path_5" data-name="Path 5" d="M652.2,578.2c-20.4,0-37.5-9.5-37.5-26.3,0-16.1,16.9-25.9,37.7-25.9,23,0,39.7,9.8,39.7,25.6,0,17.4-17.1,26.6-39.9,26.6Zm.2-67.2c-32.7,0-57.5,16.2-57.5,40.9,0,24.9,24.9,41.3,57.5,41.3,34.9,0,59.6-16.4,59.6-41.6,0-24.2-24.7-40.6-59.6-40.6Z" fill="#213f7f"/>
    <path id="Path_6" data-name="Path 6" d="M230.7,468.9c-17.7,5.5-31.8,15-52.5,21.4-.6.2-1,.4-.9.8s.6.4,1.1.4c26.6-.5,56.5,5.4,79.2,1.5,38.3-6.6,32.3-24.1,88.6-34.5l12.6-2.2c.6-.1,1.2-.2,1.1-.7,0,0-.1-.3-.9-.5l-13-3c-1.4-4.2-6.2-6.4-13.1-5.1-14.1,2.6-24.9,16-42.2,14.2-3.6-20.9-25.1-34.4-51.8-37.9-33.9-4.3-45.1-8.5-53.5-13.2-1-.5-1.6-1.1-2.4-1-.7.1-1.1,1.1-.8,2.4,2.9,17.4,43.7,30.1,48.5,57.4Z" fill="#bba598"/>
    <path id="Path_7" data-name="Path 7" d="M327.3,478.4c-.3.1-.6.3-.6.5a.548.548,0,0,0,.6.4c11.8.4,28.8-.8,44.8-3.6,54.8-9.5,40.2-26.8,93.3-36l11.1-1.9c.6-.1,1.2-.2,1.2-.6-.1-.3-.7-.4-1.1-.5l-8.3-2.1c-1-3.5-5.1-5-10.4-4-10.7,1.9-17.2,9.6-33,7.6-5.9-11.6-23.2-19.3-42-21.5-21.8-2.5-34.6-4.7-48.2-9.6a2.934,2.934,0,0,0-1-.3h-.3a1.129,1.129,0,0,0-.8,1.5c2.9,16.6,36,23.2,39.3,42.1,9.8-1.3,16.7-8.8,26-10.4,5.4-.9,9.3.3,10.7,4.2l10.2,2.3c.4.1,1.1.2,1.1.5.1.3-.1.5-.9.7l-12.6,2.2c-15,2.6-28.1,7.7-43.9,15.9a163.883,163.883,0,0,1-35.2,12.6Z" fill="#bba598"/>
  </g>
</svg>
