<svg xmlns="http://www.w3.org/2000/svg" width="600.036" height="222.515" viewBox="0 0 600.036 222.515">
  <g id="Capa_2" transform="translate(-25.564 -214.7)">
    <g id="Capa_1-2">
      <g id="Group_2" data-name="Group 2">
        <g id="Group_1" data-name="Group 1">
          <path id="Path_8" data-name="Path 8" d="M625.3,303.3c0-38-15.1-45.9-41.5-45.9-24.8,0-42.8,7.7-42.8,46.4s14.2,46.6,41.8,46.6,42.8-10.1,42.8-47.1m-23.6,1c0,23-6.1,27.2-19,27.2s-18.8-5.2-18.8-27.7,6-27,18.9-27c14.4,0,18.6,5.5,18.6,27.5m6.5-82.2a6.3,6.3,0,0,0,1.9-4.1c0-1.9-1.3-3.3-4.4-3.3H592.2a8.185,8.185,0,0,0-6.9,3.9l-15.9,20.3a5.946,5.946,0,0,0-1.6,4c0,1.9,1.4,3.1,4.3,3.1h8.6a10.323,10.323,0,0,0,7.2-3.1ZM554.5,401.6H529.8a1.109,1.109,0,0,0-1.3,1.1v7.1c0,1,0,1.2,1.2,1.2h2.6a1.109,1.109,0,0,0,1.3-1.1v-2.4h5v23.6h-1.9c-1,0-1.3,0-1.3,1.2v2.8c0,.8,0,1.3,1.3,1.3h10.1c.8,0,1.3,0,1.3-1.2v-2.8c0-1-.5-1.3-1.4-1.3H545V407.5h5v2.7a1.055,1.055,0,0,0,1,1.2h2.8c.7,0,1.2,0,1.2-1.2v-6.9c0-1,0-1.3-1.3-1.3m-26.2-57.7V334.2c0-3.3-1.6-4.8-5-4.8h-6V222.8c0-3.9-1-6-5.1-6h-23c-3.7,0-5,1.7-5,4.4v10.1a4.348,4.348,0,0,0,3.7,4.8h6.8v92.8h-5.5c-3.7,0-5,1.7-5,4.6v10.1a4.177,4.177,0,0,0,3.6,4.7,4.819,4.819,0,0,0,1.2,0h35.3c3.1,0,4.8-.7,4.8-4.2m-45,74.5c0-15.1-4.8-17.7-14.6-17.7s-15,3-15,17.7,4.8,18.1,14.6,18.1,15-3.8,15-18.1m-7,0c0,10.7-2.9,12.5-7.9,12.5s-7.8-1.9-7.8-12.6,2.8-12.2,7.9-12.2,7.8,2,7.8,12.3m-5.6-114.7c0-27.9-3.1-46.6-37.2-46.6-29.1.1-42.5,13.3-42.5,47,0,31.7,10.1,46.1,41.9,46.1a87.225,87.225,0,0,0,33.1-5.8,4.808,4.808,0,0,0,2.9-4.6,37.934,37.934,0,0,0-2.2-10.1c-.7-1.7-1.2-3-3.8-3a18.651,18.651,0,0,0-5.1,1.1,76.515,76.515,0,0,1-22.3,3.1c-12.8,0-20.3-3.6-20.3-20.3h49.5a6.613,6.613,0,0,0,4.1-1c1.5-.9,1.9-2.9,1.9-5.8m-22.1-12.2a13.1,13.1,0,0,1,0,2.8H415.5c0-12.5,4.8-20.3,17.7-20.3s15.4,6,15.4,17M409.4,401.6H387.6c-1,0-1.3,0-1.3,1.3v2.8a1.109,1.109,0,0,0,1.1,1.3h1.9v23.6h-1.7c-1,0-1.3,0-1.3,1.2v2.8c0,.8,0,1.3,1.3,1.3H410c.9,0,1.3,0,1.3-1.2v-7.1c0-.9-.5-1.2-1.3-1.2h-2.6c-1,0-1.3.5-1.3,1.2v2.9H396V420.4h10.1c.9,0,1.3,0,1.3-1.1v-3.1c0-.9,0-1.2-1.3-1.2H396v-7.6h9v2.7a1.155,1.155,0,0,0,1.2,1.2h2.7c.8,0,1.3,0,1.3-1.2v-7c0-1,0-1.2-1.2-1.2m-76.1-97.4h0c0-15.8,3.6-27.1,17.8-27.3a85.074,85.074,0,0,1,10.1,0l.5,10.1c0,2.6,1,4.4,4.4,4.4h9.6c2.8,0,4.6,0,4.6-4.1V265.4a4.94,4.94,0,0,0-3.5-5.5,98.173,98.173,0,0,0-24.8-2.6c-31.8.2-41.9,15.3-41.9,48.7,0,34.6,13.3,45,39.2,45a76.848,76.848,0,0,0,30.4-5,4.675,4.675,0,0,0,3-4.4,42.679,42.679,0,0,0-2.5-10.1,3.339,3.339,0,0,0-3.7-2.8,26.8,26.8,0,0,0-5.6,1.3,75.123,75.123,0,0,1-18.3,2.2c-15,0-18.9-8.8-18.9-27.4m-17.6,97.9a32.192,32.192,0,0,0-8.7-.9c-9.1,0-11.5,3.5-11.5,9.4a6.777,6.777,0,0,0,5.7,7.2,7.748,7.748,0,0,0-7.1,8.4v.3c0,6.5,2.7,10.1,14.1,10.1,9,0,13.7-2.5,13.7-10.8a6.71,6.71,0,0,0-.6-2.8,44.231,44.231,0,0,0,5-1,1.234,1.234,0,0,0,1.2-1.3,21.358,21.358,0,0,0-.6-3.5,1.172,1.172,0,0,0-1.1-.9,4.3,4.3,0,0,0-1.6,0,41.012,41.012,0,0,1-12.6,1.4c-.8,0-1.4,0-1.4,1.6v2.5c0,1.1.5,1.4,1.7,1.4h3.6a5.852,5.852,0,0,1,.5,2.2c0,4.4-2.2,5.2-7.6,5.2s-7.2-1.3-7.2-5.1,1.2-4.8,5.7-4.9a1.338,1.338,0,0,0,1.5-1.4V417c0-.9,0-1.4-1.5-1.5a3.924,3.924,0,0,1-4.4-3.3v-1c0-2.7.9-4.4,6-4.4a17.094,17.094,0,0,1,3.2,0v2.3c0,.7,0,1.1,1.2,1.1h2.4c.7,0,1.3,0,1.3-1.1v-5.9a1.341,1.341,0,0,0-1.1-1.5M302.4,275.5a101.959,101.959,0,0,0,1-12.4,4.186,4.186,0,0,0-3.1-4.6,30.2,30.2,0,0,0-7.9-.7,22.8,22.8,0,0,0-20.3,10.1v-3.6c0-3.1-1.2-4.9-5.1-4.9H243.7c-3.9,0-5.1,1.7-5.1,4.6v10.1c0,2.7,1.2,4.4,4.7,4.4h5.6V328h-5.5c-3.7,0-4.9,1.7-4.9,4.6v10.1a4.177,4.177,0,0,0,3.6,4.7h39.5c2.9,0,4.6-.7,4.6-4.2V333.1a4.186,4.186,0,0,0-3.4-4.8,2.854,2.854,0,0,0-1.3,0h-8.9V287.7a17.4,17.4,0,0,1,.6-4.5,8.647,8.647,0,0,1,2.8-2.9,26.861,26.861,0,0,1,12.5-2.4c2.8,0,8.1.7,10.1.7a3.747,3.747,0,0,0,3.8-3.1M236.6,434.8v-7c0-.9,0-1.1-1.2-1.1h-2.7a1.055,1.055,0,0,0-1.2,1v3.1H221.4V407.5h2.1c.9,0,1.3,0,1.3-1.2v-2.9c0-1,0-1.3-1.3-1.3H212.9c-1,0-1.3,0-1.3,1.2v2.9a1.109,1.109,0,0,0,1.1,1.3h1.9v23.6h-1.7c-1,0-1.3,0-1.3,1.2v2.8c0,.8,0,1.3,1.3,1.3h22.4a1.109,1.109,0,0,0,1.3-1.1v-.2m-10.2-91.3V333.7c0-3.3-1.4-4.8-4.8-4.8h-6.5V286.5a29.628,29.628,0,0,0-5.9-21.9c-4.8-5-12.5-7.1-29.5-7.1a104.077,104.077,0,0,0-28.8,3.8,4.8,4.8,0,0,0-3.7,5.1,68.184,68.184,0,0,0,1.4,10.1,4.079,4.079,0,0,0,3.9,3.6c2.2-.2,4.4-.5,6.5-.9a88.017,88.017,0,0,1,17-1.4c10.1,0,13.7,1.9,14.9,5.1a21.8,21.8,0,0,1,1,7.6v4.3a113.417,113.417,0,0,0-15.4-.7,51.259,51.259,0,0,0-26.9,5.6,22.985,22.985,0,0,0-10.1,21.8c0,14.7,6.1,28.5,30.4,28.5a29.365,29.365,0,0,0,23.4-9.2v4.1c0,2.4,2,3.5,4.7,3.5h24.1c3.1,0,4.6-.7,4.6-4.2m-34.4-24.3a18.836,18.836,0,0,1-.7,5.8,7.984,7.984,0,0,1-2.2,2.9,22.5,22.5,0,0,1-13.6,3.6c-10.9,0-13.8-4.8-13.8-11.5a9.108,9.108,0,0,1,3.2-7.9,25.487,25.487,0,0,1,14.8-3.1c3.7,0,8.8,0,12.3.7Zm-57.8,98.7c0-15.1-4.8-17.7-14.5-17.7s-15.1,3-15.1,17.7,4.8,18.1,14.6,18.1,15-3.8,15-18.1m-6.9,0c0,10.7-2.9,12.5-7.9,12.5s-7.8-1.9-7.8-12.6,2.8-12.2,7.9-12.2c5,0,7.8,2,7.8,12.3M103,283.1a25.7,25.7,0,0,0,18.5-27.9c0-18.3-9.5-27.5-29.8-29.6a137.943,137.943,0,0,0-18.9-1.5H30.5c-3.7,0-4.9,1.8-4.9,4.6v10.1a4.177,4.177,0,0,0,3.6,4.7,4.818,4.818,0,0,0,1.2,0h6.3v85H30.5c-3.7,0-4.9,1.8-4.9,4.6v10.1a4.177,4.177,0,0,0,3.6,4.7,4.818,4.818,0,0,0,1.2,0H71.8a113.3,113.3,0,0,0,35.7-4,30.627,30.627,0,0,0,17.9-31.8,26.356,26.356,0,0,0-22.4-29m-5.9-23.8a13.611,13.611,0,0,1-8.6,13.8,39.074,39.074,0,0,1-14.4,1.4H60.9v-31H72.7A53.582,53.582,0,0,1,86.5,245a12.649,12.649,0,0,1,10.1,14.4m3.3,50.8c0,9.3-3.3,14.3-8.9,16.3a60.637,60.637,0,0,1-18,1.9H60.9V294.1H75.1a47.931,47.931,0,0,1,16,1.6,13.719,13.719,0,0,1,9.2,14.4M63.6,402.9v2.8a1.109,1.109,0,0,0,1.1,1.3h1.5v23.6H65c-1.1,0-1.4,0-1.4,1.2v2.8c0,.8,0,1.3,1.3,1.3H75c.8,0,1.2,0,1.2-1.2V432c0-1,0-1.3-1.3-1.3H73.4V420.6H85.8v10.1H84.2c-1,0-1.4,0-1.4,1.2v2.8a1.109,1.109,0,0,0,1.1,1.3H94.2c.8,0,1.2,0,1.2-1.2V432c0-1,0-1.3-1.3-1.3H92.6V407.5h1.8c.8,0,1.2,0,1.2-1.2v-2.9c0-1,0-1.3-1.3-1.3H84.2c-1,0-1.4,0-1.4,1.3v2.8a1.109,1.109,0,0,0,1.1,1.3h1.9v8.4H73.4v-8.4h1.8c.8,0,1.2,0,1.2-1.2v-2.9c0-1,0-1.3-1.3-1.3H65c-1.1,0-1.4,0-1.4,1.3m78.2-.1v6.9c0,1,.5,1.2,1.3,1.2h2.5a1.109,1.109,0,0,0,1.3-1.1v-2.8h5v23.6h-1.8c-1.1,0-1.4,0-1.4,1.2v2.8c0,.8,0,1.3,1.3,1.3h10.7c.9,0,1.3,0,1.3-1.2v-2.8c0-1,0-1.3-1.3-1.3h-1.9V407.5h5v2.7a1.055,1.055,0,0,0,1,1.2h2.9c.8,0,1.2,0,1.2-1.2v-6.9c0-1,0-1.3-1.3-1.3H143.1a1.109,1.109,0,0,0-1.3,1.1v.2m35.3,0v2.8a1.109,1.109,0,0,0,1.1,1.3h1.9V431h-1.7c-1,0-1.3,0-1.3,1.2V435c0,.8,0,1.3,1.3,1.3h22.4c.9,0,1.3,0,1.3-1.2V428c0-.9-.5-1.2-1.3-1.2h-2.7a1.13,1.13,0,0,0-1.3.9v3.2H186.7V421h10.1c.9,0,1.3,0,1.3-1.1v-3.1c0-.9,0-1.2-1.3-1.2H186.7v-8h9.1v2.7a1.155,1.155,0,0,0,1.2,1.2h2.8c.7,0,1.2,0,1.2-1.2v-7c0-1,0-1.2-1.2-1.2H178.4c-1-.1-1.3-.1-1.3,1.2M244,427.8v6.4a1.712,1.712,0,0,0,1.2,1.6,29.048,29.048,0,0,0,10.1,1.4c10.1,0,13-4.3,13-10.8s-2-8.2-8.3-10.1l-4.3-1c-3.7-.9-4.2-2.5-4.2-4.4,0-1.8.9-4.2,5.1-4.2a41.7,41.7,0,0,1,5,0v2.9a1.109,1.109,0,0,0,1.1,1.3h2.9c.8,0,1.2,0,1.2-1.2v-6.5a1.51,1.51,0,0,0-1.1-1.6,37.721,37.721,0,0,0-8.8-1c-9.3,0-12.5,4.2-12.5,10.1a8.921,8.921,0,0,0,7.6,10.1h.3l4.2.9c4.2,1,4.7,2.3,4.7,4.6,0,2.2-.6,4.3-5.8,4.3a24.825,24.825,0,0,1-6.1-.7l-.4-2.2c0-.8,0-1.3-1.3-1.3H245a1.109,1.109,0,0,0-1.3,1.1v.2m106.6-24.8v2.8a1.109,1.109,0,0,0,1.1,1.3h1.9v23.6h-1.7c-1,0-1.3,0-1.3,1.2v2.8c0,.8,0,1.3,1.3,1.3h10.8c.8,0,1.2,0,1.2-1.2V432c0-1,0-1.3-1.3-1.3h-2.1v-8.4h5.1l5.4,11.6a3.283,3.283,0,0,0,3.8,2.2h4.6c.8,0,1.2,0,1.2-1.2V432c0-1,0-1.3-1.2-1.3h-1.3c-1.1,0-1.3,0-1.6-1.1l-4.6-8.6a8.83,8.83,0,0,0,5.7-9.2,8.267,8.267,0,0,0-4.9-8.9,24.851,24.851,0,0,0-9.4-1.2H351.3c-1,0-1.3,0-1.3,1.3m10,4.1h3a16.35,16.35,0,0,1,4.9.5c1.5.6,2.3,1.8,2.3,4.5a4.3,4.3,0,0,1-2.4,4.4,12.425,12.425,0,0,1-4.7.6H360Zm60,20.3v6.4a1.456,1.456,0,0,0,1.2,1.6,29.048,29.048,0,0,0,10.1,1.4c10.1,0,13-4.3,13-10.8s-2.1-8.2-8.4-10.1l-4.2-1c-3.8-.9-4.3-2.5-4.3-4.4,0-1.8,1-4.2,5.2-4.2a41.7,41.7,0,0,1,5,0v2.9a1.109,1.109,0,0,0,1.1,1.3h2.9c.7,0,1.2,0,1.2-1.2v-6.5a1.621,1.621,0,0,0-1.2-1.6,36.887,36.887,0,0,0-8.7-1c-9.4,0-12.6,4.2-12.6,10.1a9.012,9.012,0,0,0,7.8,10.1h.1l4.2.9c4.2,1,4.7,2.3,4.7,4.6,0,2.2-.7,4.3-5.8,4.3a25.636,25.636,0,0,1-6.2-.7v-3.1c0-.8,0-1.3-1.3-1.3h-2.4c-.8,0-1.2,0-1.2,1.3m72.2-23.5v2.8a1.109,1.109,0,0,0,1.1,1.3h1.9v23.6h-1.7c-1,0-1.3,0-1.3,1.2v2.8c0,.8,0,1.3,1.3,1.3h10.8c.8,0,1.2,0,1.2-1.2V432c0-1,0-1.3-1.3-1.3h-1.8v-8.4h5.2l5,11.6a3.456,3.456,0,0,0,3.9,2.2h4.5c.8,0,1.2,0,1.2-1.2V432c0-1,0-1.3-1.2-1.3H520c-1.1,0-1.3,0-1.7-1.1l-4.5-8.6a8.83,8.83,0,0,0,5.7-9.2,8.394,8.394,0,0,0-5-8.9,24.851,24.851,0,0,0-9.4-1.2h-11c-1,0-1.3,0-1.3,1.3m9.8,4.5h3a16.35,16.35,0,0,1,4.9.5c1.5.6,2.4,1.8,2.4,4.5a4.3,4.3,0,0,1-2.5,4.4,12.425,12.425,0,0,1-4.7.6h-3.1Zm60.9,20.3v6.4a1.712,1.712,0,0,0,1.2,1.6,31.618,31.618,0,0,0,10.1,1.4c10.1,0,12.9-4.3,12.9-10.8s-2-8.2-8.3-10.1l-4.3-1c-3.7-.9-4.2-2.5-4.2-4.4,0-1.8,1-4.2,5.2-4.2a40.043,40.043,0,0,1,4.9,0v2.9c0,.8,0,1.3,1.4,1.3H585c.8,0,1.2,0,1.2-1.2v-6.5a1.51,1.51,0,0,0-1.1-1.6,37.721,37.721,0,0,0-8.8-1c-9.3,0-12.5,4.2-12.5,10.1a8.942,8.942,0,0,0,7.8,10.1h0l4.3.9c4.1,1,4.6,2.3,4.6,4.6,0,2.2-.6,4.3-5.8,4.3a24.825,24.825,0,0,1-6.1-.7v-3.1c0-.8,0-1.3-1.3-1.3h-2.6a1.109,1.109,0,0,0-1.3,1.1v.2" fill="#6f7376"/>
        </g>
      </g>
    </g>
  </g>
</svg>
