<?xml version="1.0" encoding="UTF-8" standalone="no"?>
<!-- Created with Inkscape (http://www.inkscape.org/) -->

<svg
   xmlns:dc="http://purl.org/dc/elements/1.1/"
   xmlns:cc="http://creativecommons.org/ns#"
   xmlns:rdf="http://www.w3.org/1999/02/22-rdf-syntax-ns#"
   xmlns:svg="http://www.w3.org/2000/svg"
   xmlns="http://www.w3.org/2000/svg"
   xmlns:sodipodi="http://sodipodi.sourceforge.net/DTD/sodipodi-0.dtd"
   xmlns:inkscape="http://www.inkscape.org/namespaces/inkscape"
   version="1.0"
   width="566.92914"
   height="518.74194"
   id="svg1903"
   sodipodi:docname="Best_Western_logo.svg"
   inkscape:version="0.92.4 (5da689c313, 2019-01-14)">
  <metadata
     id="metadata12093">
    <rdf:RDF>
      <cc:Work
         rdf:about="">
        <dc:format>image/svg+xml</dc:format>
        <dc:type
           rdf:resource="http://purl.org/dc/dcmitype/StillImage" />
      </cc:Work>
    </rdf:RDF>
  </metadata>
  <sodipodi:namedview
     pagecolor="#ffffff"
     bordercolor="#666666"
     borderopacity="1"
     objecttolerance="10"
     gridtolerance="10"
     guidetolerance="10"
     inkscape:pageopacity="0"
     inkscape:pageshadow="2"
     inkscape:window-width="1366"
     inkscape:window-height="705"
     id="namedview12091"
     showgrid="false"
     inkscape:zoom="0.42585963"
     inkscape:cx="29.769228"
     inkscape:cy="189.62514"
     inkscape:window-x="-8"
     inkscape:window-y="-8"
     inkscape:window-maximized="1"
     inkscape:current-layer="g1918" />
  <defs
     id="defs1905" />
  <g
     id="layer1"
     transform="translate(-17.71654,-17.71522)">
    <g
       transform="translate(-48.8189,-255.276)"
       id="g1918">
      <path
         d="M 166.33516,791.73031 C 97.462486,791.65696 66.53544,757.00802 66.53544,700.73145 l 0.0025,-254.77901 c 0,-72.09071 22.71189,-86.34012 87.71315,-112.73704 l 127.64267,-47.09799 c 21.37819,-7.56461 43.90618,-13.12619 68.11157,-13.12619 24.19477,0 46.75926,5.56441 68.10095,13.12867 l 127.67952,47.09019 c 65.00126,26.40224 87.67878,40.65165 87.67878,112.74768 v 254.77086 c 0,56.27692 -30.92705,90.93082 -99.78909,91.00452 l -367.34173,-0.003 z"
         style="fill:#002878;fill-rule:evenodd"
         id="_46623216"
         inkscape:connector-curvature="0" />
      <g
         transform="matrix(3.54331e-5,0,0,3.54331e-5,48.8189,255.274)"
         style="fill-rule:evenodd"
         id="g12">
        <path
           d="m 13592800,14815400 c 1837370,-1040 2583680,-823580 2583680,-2441680 l 70,-7295760 c 0,-1422850 -537040,-1963670 -2151000,-2554790 L 10422150,1193960 C 9819920,980840 9194280,823510 8500190,823510 7805880,823430 7181270,980840 6577860,1194110 L 2975570,2523090 C 1361690,3114140 824860,3655190 824860,5078100 l 70,7295470 c 0,1618110 746020,2440860 2582350,2441900 l 10185500,-70 z"
           style="fill:#ffcb00"
           id="_46685664"
           inkscape:connector-curvature="0" />
        <path
           d="m 16095800,12373700 h 161380 310 l -2510,151580 -6630,147230 -11450,142870 -16020,138520 -20630,133840 -25950,129460 -30400,124780 -35840,120400 -40720,116010 -46300,111320 -51280,106600 -57010,102210 -62130,97160 -67940,92460 -73530,87710 -78850,82680 -84860,77920 -89990,72570 -96130,67490 -101400,62430 -107020,57670 -112720,52270 -118490,47190 -123990,42100 -129880,37020 -135520,32230 -141210,27140 -147300,22020 -153110,17240 -159310,12430 -165280,7320 -171280,2500 v -161380 l 166860,-2500 160200,-7320 153630,-11790 147410,-16600 140960,-21400 134890,-25860 128560,-30330 122280,-35120 116410,-39580 110250,-44030 104500,-48470 98800,-52610 93160,-57370 87270,-61790 82410,-66230 76620,-70340 71890,-75080 66570,-79490 61620,-84220 57070,-88940 51930,-93350 47500,-98380 42500,-103080 38180,-107790 33320,-112800 29120,-117820 24050,-122500 20010,-127520 15380,-132180 10810,-137190 6630,-142150 1890,-147160 z m 161760,-7295760 h -310 l -70,7295760 h -161380 l 70,-7295760 z m -2259840,-2478850 55680,-151880 v 0 l 149120,55620 142910,55800 137120,55540 131090,56070 125510,56460 119990,57340 114290,58060 108660,58970 103470,60660 98360,61600 93040,63640 87810,65220 83010,67610 77980,69540 73370,71940 68240,74530 63500,76960 58550,80200 54020,82990 49280,86240 44620,89060 40400,92650 35940,95810 31270,99430 27330,102930 23500,106890 19130,110710 15790,115040 11940,118890 8180,123540 4840,128050 1900,132740 h -162000 l -1280,-128940 -4840,-123630 -8180,-118480 -11300,-113810 -14530,-108720 -18490,-104390 -21600,-99930 -25430,-95950 -29370,-91850 -32780,-88210 -36600,-84430 -40820,-81460 -44860,-78020 -48960,-75390 -53490,-72600 -57800,-70640 -62540,-68210 -67050,-66240 -72280,-64480 -77310,-62530 -82750,-61440 -87980,-59840 -93300,-59060 -99030,-57500 -104860,-57070 -110490,-56160 -116210,-55440 -122330,-55200 -128570,-54810 -134580,-54900 -141010,-54540 z m -3548660,-1481410 940,320 3603400,1329210 -55680,151880 -3603400,-1329210 z M 8500200,904180 v -161380 -310 l 65820,770 65740,1360 65050,2240 64980,3120 64300,3960 64250,4780 63590,5920 63250,6390 63230,7170 62580,8230 62260,8660 61960,9680 61650,10070 61350,11070 61070,11410 60490,12370 60520,12680 60270,13600 59690,14190 59770,14440 59210,15310 58990,15520 59080,16350 58560,16850 58350,17000 58160,17780 57970,17900 57800,18630 57300,19040 57470,19110 56980,19780 57170,19810 -53800,152520 -55890,-19810 -56360,-19160 -56190,-19110 -56680,-18400 -56520,-18010 -56710,-17900 -56900,-17140 -57090,-17000 -57280,-16210 -57180,-15730 -57730,-15520 -57950,-14670 -57870,-14440 -58430,-13550 -58370,-12980 -58620,-12680 -59210,-11730 -59170,-11410 -59470,-10430 -59750,-10070 -60060,-9060 -60360,-8660 -60680,-7590 -60690,-7170 -61350,-6390 -61690,-5280 -61730,-4780 -62400,-3960 -62440,-3120 -63150,-2240 -63220,-1360 -63920,-150 z m -1894490,365850 -55680,-151880 940,-320 57270,-19830 57080,-19790 57550,-19120 57690,-19050 57540,-18640 58010,-17910 58200,-17800 58380,-17010 58590,-16860 59100,-16350 58990,-15530 59220,-15320 59760,-14450 59690,-14200 60260,-13600 60510,-12690 60470,-12380 61050,-11410 61330,-11080 61630,-10070 61930,-9680 62240,-8660 62570,-8240 63210,-7160 63230,-6390 63570,-5910 64240,-4790 64300,-3960 64980,-3100 65050,-2240 65750,-1360 65840,-450 v 161380 l -63940,450 -63230,1360 -63150,2240 -62440,3100 -62400,3960 -61720,4790 -61670,5270 -61330,6390 -60670,7160 -60670,7600 -60340,8660 -60030,9060 -59730,10070 -59450,10440 -59150,11410 -59190,11740 -58610,12690 -58360,12980 -58430,13560 -57860,14450 -57960,14680 -57730,15530 -57200,15730 -57310,16220 -57120,17010 -56940,17160 -56750,17910 -56900,18020 -56430,18410 -56270,19120 -56460,19170 -55990,19830 z m -3602290,1328980 -55680,-151880 3602290,-1328980 55680,151880 z M 905560,5078080 h -161380 -310 l 1900,-132740 4830,-128060 8180,-123550 11940,-118900 15790,-115040 19120,-110730 23490,-106590 27330,-103250 31260,-99440 35930,-95820 40390,-92660 44610,-89070 49260,-86260 54020,-82990 58540,-80220 63490,-76970 68220,-74540 73050,-71950 78280,-69550 82680,-67620 88120,-65220 93020,-63650 98350,-61610 103460,-60670 108650,-58970 114280,-58070 119980,-57330 125500,-56460 131080,-56070 137110,-55540 142900,-55800 149110,-55610 55680,151880 -147210,54970 -141000,54540 -134570,54900 -128560,54810 -122320,55200 -116200,55430 -110480,56170 -104850,57070 -99020,57510 -93290,59070 -87960,59850 -82420,61440 -77620,62540 -71960,64490 -67350,66250 -62520,68220 -57790,70650 -53480,72620 -48960,75390 -44840,78040 -40810,81470 -36590,84440 -32770,88220 -29360,91860 -25430,95650 -21590,100250 -18480,104410 -14530,108720 -11300,113820 -8180,118490 -4830,123640 -1280,128940 z m 380,7295470 H 744250 l -70,-7295470 h 161380 l 70,7295470 z m 2501350,2361210 v 161380 0 l -171180,-2500 -165190,-7320 -159220,-12440 -153040,-17240 -147220,-22020 -141130,-27150 -135450,-32240 -129810,-37020 -123930,-42110 -118430,-47200 -112660,-52280 -106970,-57680 -101350,-62430 -96090,-67510 -89940,-72570 -84830,-77940 -78810,-82680 -73490,-87730 -67920,-92460 -62100,-97180 -56980,-102210 -51260,-106610 -46280,-111330 -40700,-116020 -35820,-120410 -30390,-124780 -25950,-129480 -20620,-133830 -16010,-138530 -11440,-142870 -6630,-147240 -2510,-151580 h 162000 l 1890,147160 6630,142160 10800,137190 15370,132190 20000,127510 24050,122520 29110,117820 33300,112810 38160,107800 42480,103090 47480,98390 51900,93350 57040,88960 61600,84220 66530,79510 71850,75080 76590,70360 82360,66230 87230,61810 93110,57370 98750,52620 104440,48480 110190,44040 116350,39590 122210,35120 128490,30340 134810,25870 140880,21400 147340,16600 153540,11800 160110,7320 z m 10185500,161310 v 0 l -10185500,70 v -161380 l 10185500,-70 z"
           style="fill:#ffcb00;fill-rule:nonzero"
           id="_466856641"
           inkscape:connector-curvature="0" />
      </g>
      <path
         d="m 530.45354,773.79054 c 58.08508,-0.0365 85.06736,-24.62775 85.06736,-80.08015 V 439.65846 c 0,-45.68846 -9.32563,-66.40795 -69.7337,-88.51074 L 418.10768,304.05221 c -21.33886,-7.55929 -43.50721,-13.34126 -68.10095,-13.34126 -24.60153,-0.003 -46.73338,5.78728 -68.11405,13.34409 L 154.25249,351.14772 C 93.815715,373.2452 84.518786,393.97248 84.518786,439.65846 v 254.04661 c 0,55.45772 26.982284,80.05146 85.030514,80.08831 l 360.90353,-0.003 z"
         style="fill:#002878;fill-rule:evenodd"
         id="path16"
         inkscape:connector-curvature="0" />
      <path
         d="m 193.89217,573.69858 v 8.1 c 5.75079,0 8.93445,0.79795 10.56437,2.42787 0.79547,0.79548 1.3702,2.38855 1.3702,4.23107 0.0368,1.66393 -0.2126,2.93704 -0.9737,6.18661 -2.82154,10.84783 -13.01882,50.20299 -14.75894,56.6387 0.003,0 -10.23095,-41.40744 -14.24941,-57.54685 -0.83232,-3.43842 -1.2313,-5.81386 -1.27063,-6.43606 0.003,-1.6324 0.39898,-2.74784 1.19445,-3.54579 1.38047,-1.37268 4.63004,-1.95272 9.8426,-1.95272 l 0.0393,-8.10283 h -43.8828 v 8.1 c 5.5017,0 7.02142,1.23378 8.13933,5.79012 0.003,-0.005 4.63004,18.37842 5.02902,19.97149 l -12.84024,43.90654 c 0,0 -10.63275,-43.84099 -14.06834,-58.41603 -0.64559,-2.6798 -0.86882,-4.04716 -0.90567,-4.87913 -0.0734,-1.95803 0.39649,-3.50929 1.34149,-4.45429 1.29898,-1.29933 3.54579,-1.91587 7.8137,-1.91587 l 0.002,-8.10283 H 94.53855 v 8.1 c 4.842637,0 6.54342,1.30712 7.70102,5.79012 l 27.05811,104.2409 h 10.09488 l 19.37552,-69.22453 17.76153,69.22453 h 10.38083 l 26.15775,-92.66846 c 3.36225,-11.8637 4.48051,-17.35973 12.39662,-17.35973 V 581.8 l 28.935,0.001 c 11.79814,0 21.41787,-3.43594 27.89043,-9.9085 5.93433,-5.93433 9.04712,-14.32559 9.04712,-24.31027 0,-8.81894 -2.60893,-16.23898 -7.60358,-21.43843 -4.40716,-4.63287 -10.19197,-7.20779 -17.60917,-7.85339 13.45145,-3.58547 20.25992,-13.7087 20.32299,-25.38885 0.0368,-8.21551 -1.44354,-15.7011 -7.12098,-21.87957 -4.81359,-5.13921 -12.55642,-7.38354 -23.07366,-7.38354 h -53.60209 v 8.10531 c 5.96339,-0.0369 8.27823,0.75331 9.945,2.41477 1.40669,1.41732 2.0289,3.5433 2.0289,6.98173 l -0.002,83.15893 c 0,6.22311 -1.95307,9.39898 -11.97142,9.39898 z M 582.7524,721.59657 h 3.50645 l 5.86099,9.69307 h 4.19704 l -6.32551,-9.94252 c 3.3991,-0.39614 5.88721,-2.09976 5.88721,-6.18378 0.002,-4.59319 -2.77689,-6.50658 -8.2389,-6.50658 l -8.57232,-0.003 v 22.63571 h 3.68504 z m 0,-3.14433 v -6.62492 h 4.4883 c 2.27799,0 4.95284,0.3359 4.95284,3.04972 0,3.28642 -2.49874,3.5752 -5.27847,3.5752 z m 24.08952,1.15476 c 0,-12.33354 -9.29657,-20.47039 -20.03704,-20.47039 -10.81382,-0.002 -20.11075,8.13933 -20.11075,20.47287 0,11.64331 8.35193,20.43354 20.11075,20.43354 10.74295,-0.002 20.03704,-8.13649 20.03704,-20.43602 z m -4.37811,0 c 0,9.97902 -6.90803,16.88988 -15.65893,16.88988 -9.72992,-0.002 -15.73264,-7.59047 -15.73264,-16.8874 0.003,-9.98681 6.87153,-16.92673 15.73264,-16.92673 8.7509,-0.002 15.65893,6.94488 15.65893,16.92425 z M 374.37831,575.15275 c 0.69307,0 1.70078,0.61158 3.07098,1.40705 3.47244,2.02358 8.68535,5.02902 16.4622,5.02902 16.34422,-0.0422 29.8063,-10.45453 29.87185,-28.68591 0.0737,-14.25224 -7.55645,-22.82457 -24.66708,-28.17638 -3.71906,-1.16008 -6.54591,-2.16779 -10.59307,-4.36996 -3.79276,-2.02889 -5.97154,-5.57504 -5.97154,-9.84543 0,-3.35941 1.2313,-6.25713 3.2967,-8.27575 1.48322,-1.41732 3.83208,-2.75067 7.34137,-2.90019 8.24422,-0.43583 14.06587,6.58523 17.53831,18.74303 h 7.02142 v -25.14225 h -6.4754 c 0,0 -0.28594,1.26248 -0.47232,1.88185 -0.2126,0.67996 -0.61157,1.87937 -1.08425,1.84288 -0.71894,0 -1.11791,-0.2863 -1.95272,-0.79548 -2.99728,-1.77165 -6.3333,-4.95531 -15.84283,-5.06551 -14.21008,-0.18141 -26.29701,9.69307 -26.87173,26.18681 -0.3965,10.12855 4.08401,17.58296 8.7509,21.0554 5.90032,4.33878 10.45417,5.82413 15.44386,7.77685 12.58547,4.91634 15.95551,8.13933 15.95551,15.04771 -0.0369,7.29922 -5.06551,12.22051 -12.01075,12.22051 -8.72185,-0.002 -17.25732,-6.22311 -20.33362,-23.39929 h -7.00795 v 24.80634 h -0.0368 c -0.58252,4.96063 -1.66677,26.01106 -25.82469,31.25268 v 7.66665 h 10.63028 v 55.0878 c 0,10.5222 2.42504,15.77444 5.71146,19.24688 3.87141,4.11839 8.64815,5.82414 15.84283,5.82414 7.56673,-0.002 12.37004,-1.8163 15.80598,-5.25189 3.223,-3.21272 5.31496,-7.84276 5.31496,-14.38866 l 0.002,-12.29953 h -7.12347 v 9.54602 c 0,8.53831 -2.93421,12.07914 -7.56425,12.07914 -1.91339,-0.005 -3.36224,-0.50138 -4.40681,-1.55658 -1.5541,-1.58279 -2.3152,-4.40681 -2.3152,-8.6772 v -59.61012 h 20.9087 v -8.49614 h -20.9087 v -25.67693 c 0.27992,-1.84535 0.65693,-4.12264 2.49343,-4.08756 z m 84.12767,86.47937 c -1.91622,14.21291 -8.2024,31.94008 -29.58342,31.97693 -7.155,-0.002 -17.68536,-2.42788 -25.71414,-13.52764 -5.32311,-7.38071 -8.79555,-18.01878 -8.79555,-31.68567 0.002,-26.84834 13.52799,-45.57578 32.84327,-45.57578 7.56425,0 13.88976,2.49094 18.77705,7.3807 7.51996,7.51465 11.50157,20.72233 11.50157,38.19508 v 0.46985 h -40.22114 c 0.0368,16.52775 2.45941,26.98192 7.34138,31.86389 2.20464,2.19969 4.91598,3.28642 8.24953,3.28642 10.59342,0.10736 15.48035,-11.35205 17.53582,-22.35224 z m -27.23138,-48.51 c -1.22846,-1.23094 -2.67484,-1.80319 -4.48051,-1.80319 -1.81382,0 -3.25984,0.57473 -4.49078,1.80567 -3.43595,3.43311 -4.99252,11.8637 -4.99252,27.27886 h 18.95598 c -0.0369,-15.41764 -1.55658,-23.84291 -4.99217,-27.28134 z m -71.25094,-63.43441 c -1.87901,14.21292 -8.21268,31.90111 -29.55685,31.9376 -7.155,-0.005 -17.7222,-2.42504 -25.71449,-13.52764 -5.31496,-7.38354 -8.78492,-18.01098 -8.78492,-31.68566 0,-26.83524 13.49114,-45.57579 32.84327,-45.57579 7.55646,-0.005 13.88728,2.49874 18.76677,7.38071 7.52244,7.52775 11.50158,20.72232 11.50158,38.19508 l 0.002,0.50385 h -40.26331 c 0.0762,16.49126 2.46472,26.95075 7.38071,31.82988 2.21527,2.23902 4.92661,3.2967 8.24953,3.2967 10.59626,0.0999 15.44385,-11.36233 17.53866,-22.35473 z M 332.8185,501.14086 c -1.23094,-1.22563 -2.71381,-1.80566 -4.48015,-1.80566 -1.81382,-0.003 -3.2967,0.58535 -4.49114,1.80566 -3.43311,3.44126 -4.99217,11.87185 -5.02902,27.27886 l 18.99248,-0.003 c -0.0393,-15.40701 -1.59307,-23.82981 -4.99217,-27.27603 z m 137.52248,48.5837 v 9.58288 c 0,8.53547 -2.9739,12.0763 -7.56709,12.0763 -1.91622,-0.002 -3.35976,-0.49855 -4.44366,-1.5828 -1.55657,-1.55622 -2.31519,-4.38059 -2.31519,-8.6485 l 0.003,-59.61791 h 20.90587 v -8.49863 h -20.90587 v -30.41787 h -6.04736 c -1.61965,5.14169 -1.69583,26.01354 -25.85374,31.25516 v 7.66134 h 10.63276 v 55.09559 c 0,10.52255 2.42255,15.77196 5.71145,19.2444 3.87142,4.12087 8.64567,5.82449 15.84284,5.82449 7.55645,0 12.37039,-1.81382 15.8035,-5.24941 3.22583,-3.21555 5.31744,-7.84275 5.31744,-14.38901 V 549.72456 Z M 273.79126,661.63212 c -1.87937,14.21291 -8.21551,31.94008 -29.54905,31.97693 -7.1628,-0.002 -17.72221,-2.42788 -25.72229,-13.52764 -5.31248,-7.38071 -8.78775,-18.01878 -8.78775,-31.68567 0.003,-26.84834 13.49114,-45.57578 32.84327,-45.57578 7.55645,0 13.85326,2.49094 18.76925,7.3807 7.53059,7.51465 11.50937,20.72233 11.50937,38.19508 v 0.46985 h -40.22114 c 0.0368,16.52775 2.42539,26.98192 7.34137,31.86389 2.20465,2.19969 4.91599,3.28642 8.24174,3.28642 10.60122,0.10736 15.44385,-11.35205 17.5461,-22.3813 z m -27.19488,-48.51 c -1.23094,-1.23094 -2.71382,-1.80319 -4.49327,-1.80319 -1.80319,0 -3.24956,0.57473 -4.48051,1.80567 -3.43559,3.43311 -4.98968,11.8637 -5.02618,27.27886 h 18.98965 c -0.0369,-15.41764 -1.55658,-23.84291 -4.98969,-27.28134 z m 41.88012,76.42665 c 0.61157,-1.44106 0.90567,-2.42291 1.84252,-2.42291 0.47267,-0.002 1.70362,0.6222 3.07346,1.41768 3.4728,1.98921 8.72221,5.02866 16.46256,5.02866 16.34386,-0.0393 29.79815,-10.45417 29.9087,-28.68555 0.0734,-14.25473 -7.59331,-22.82457 -24.70394,-28.17638 -3.68255,-1.16256 -6.50941,-2.16779 -10.59342,-4.38059 -3.80339,-2.0211 -5.97118,-5.56441 -5.97118,-9.8348 0,-3.3991 1.19409,-6.33331 3.32291,-8.28638 1.8528,-1.69795 3.80587,-2.74004 7.31516,-2.88957 8.24421,-0.40181 14.10236,6.58524 17.5748,18.7324 l 7.02142,-0.002 v -25.13161 h -6.47539 c 0,0 -0.33343,1.26248 -0.50918,1.88433 -0.22039,0.71929 -0.58252,1.87937 -1.0839,1.87937 -0.72177,-0.0393 -1.12074,-0.32527 -1.95271,-0.79512 -2.99764,-1.80602 -6.29681,-4.99216 -15.84284,-5.10271 -14.21291,-0.17823 -26.26051,9.69307 -26.87988,26.18433 -0.35964,10.12889 4.09181,17.58578 8.79555,21.05539 5.88969,4.33346 10.45418,5.78764 15.40701,7.74319 12.62232,4.95 15.98209,8.16555 15.94524,15.07358 0,7.31516 -5.05524,12.23114 -11.97142,12.23114 -8.74807,0 -17.25236,-6.22063 -20.32583,-23.43614 l -7.05508,-0.002 v 29.83535 h 5.93682 c 0,0 0.43334,-1.04492 0.75862,-1.9187 z M 260.44717,528.78185 c -3.03414,-2.96327 -7.56461,-4.23106 -15.70358,-4.23106 l -6.43323,-0.005 v 38.70425 c 0,3.61417 0.83197,6.2178 2.53523,7.95827 1.69583,1.66146 4.23107,2.31484 7.73008,2.49059 12.27047,0.69307 17.65914,-10.48039 17.98193,-22.67752 0.32528,-11.82437 -1.26779,-17.46992 -6.11043,-22.23921 z m -2.97107,-52.27406 c -2.31519,-2.60362 -6.54626,-4.80047 -11.10259,-4.76362 -2.638,0.0365 -4.87949,0.57225 -6.11044,1.80567 -1.33334,1.33866 -1.95555,3.43595 -1.95555,6.58276 l 0.003,35.29488 h 4.12086 c 12.83988,0 20.14477,-5.67496 20.14477,-21.15532 0.002,-7.91893 -1.19445,-13.30759 -5.09989,-17.76437 z m 249.82866,126.31217 c -8.89795,0.0709 -15.69579,9.04748 -18.84295,18.6672 v -16.53838 l -30.27862,1.13102 v 7.33358 c 7.16811,0.54071 10.63807,1.88717 10.63807,8.49898 v 53.3133 c 0,6.61961 -3.14717,7.96607 -10.63807,8.50394 v 7.73787 h 44.78031 v -7.7772 c -9.18921,-0.46453 -12.87425,-3.46996 -12.87425,-10.2313 l 0.002,-23.43614 c 0,-10.6037 3.46996,-25.49906 9.94252,-33.56468 -0.54603,1.55374 -0.94217,3.57484 -0.9815,4.91846 -0.0999,4.70374 1.23343,8.17618 3.50929,10.45169 1.845,1.80319 4.23355,2.75067 7.13126,2.75067 2.49095,0 4.84264,-1.05484 6.79536,-3.00791 2.8637,-2.8187 4.48299,-7.34386 4.48299,-12.33354 0,-4.63252 -1.2965,-10.19445 -4.59319,-13.15772 -2.60362,-2.35417 -5.49106,-3.25984 -9.0737,-3.25984 z m 95.44783,80.87031 c -6.72449,-0.28595 -9.98433,-1.91587 -9.98433,-8.46213 l 0.002,-47.77759 c 0,-8.46496 -2.24397,-15.19477 -6.51189,-19.45453 -3.35941,-3.37535 -8.02878,-5.17606 -13.45429,-5.17606 -7.87925,0 -14.93468,4.26791 -19.67492,12.58299 v -10.45417 l -29.9452,1.13102 v 7.33358 c 6.90804,0.50386 9.98185,1.95272 9.98185,8.49898 v 53.3133 c 0,6.54874 -2.71417,7.96607 -9.98185,8.46461 v 7.7772 h 41.8826 v -7.7772 c -7.38071,-0.50138 -10.63275,-1.84252 -10.63275,-8.46213 l 0.002,-42.02964 c 0,-5.86347 2.41476,-12.37039 5.8585,-15.8035 1.65862,-1.66926 3.43559,-2.49095 5.24161,-2.49095 1.23343,-0.002 2.278,0.43335 3.14682,1.25752 1.40952,1.45382 2.16814,3.90827 2.16814,7.20461 v 68.10129 h 31.90075 z"
         style="fill:#ffcb00;fill-rule:evenodd"
         id="path18"
         inkscape:connector-curvature="0" />
      <path
         d="m 303.37717,446.78051 -32.58603,-73.4974 4.44366,-7.45441 9.33343,4.27323 34.00087,76.71508 z m 14.07118,-75.95964 4.44614,-7.44378 9.37027,4.2339 14.24977,32.14736 -7.63016,17.10815 z m 64.09559,75.99614 34.00051,-76.71508 9.33342,-4.27323 4.48051,7.45441 -32.62783,73.4974 z m -43.84347,-85.32957 -18.88228,-8.1 -10.73764,17.10815 25.17378,56.71488 -7.09193,15.88217 -35.11878,-79.10114 -18.88228,-8.14181 -10.74047,17.14712 36.4259,82.06972 h 32.25792 l 7.74283,-17.47523 7.74035,17.47523 h 8.8976 l 7.74319,-17.47523 7.74036,17.47523 h 32.26039 l 36.4259,-82.06972 -10.74047,-17.14712 -18.8798,8.14181 -35.12126,79.10114 -7.09441,-15.88217 25.17874,-56.71488 -10.74295,-17.10815 -18.87697,8.1 -12.30732,27.81673 z m 24.56469,55.37906 -7.62981,-17.10815 14.24941,-32.14736 9.32563,-4.2339 4.45429,7.44378 z m -12.19429,-6.69296 7.5646,17.07378 -7.5646,17.0791 -7.59331,-17.0791 z m 6.22311,-97.26165 10.56189,23.66185 -10.60122,23.87162 h -12.3704 l -10.59059,-23.95063 10.52504,-23.58284 z m -6.22311,6.51189 -7.59331,17.07095 7.59331,17.11594 7.6011,-17.11594 z"
         style="fill:#dc290e;fill-rule:evenodd"
         id="path20"
         inkscape:connector-curvature="0" />
    </g>
  </g>
</svg>
