<?xml version="1.0" encoding="utf-8"?>
<!-- Generator: Adobe Illustrator 19.2.1, SVG Export Plug-In . SVG Version: 6.00 Build 0)  -->
<svg version="1.1" id="layer" xmlns="http://www.w3.org/2000/svg" xmlns:xlink="http://www.w3.org/1999/xlink" x="0px" y="0px"
	 viewBox="0 0 652 652" style="enable-background:new 0 0 652 652;" xml:space="preserve">
<style type="text/css">
	.st0{clip-path:url(#SVGID_2_);fill:url(#SVGID_3_);}
	.st1{clip-path:url(#SVGID_5_);fill:url(#SVGID_6_);}
	.st2{fill:#00348C;}
</style>
<g>
	<defs>
		<path id="SVGID_1_" d="M337.8,128.6c10.4,18.8,33.7,61.1,40.7,77.1c4.6,10.4,4.8,26.8-8.4,32.3c-10.9,4.6-29.9,1.2-36.1,0l-0.9,0
			l0.6,0.7c11.8,7.1,40.2,18.7,67.7,10.3c22.4-6.8,25.6-31.7,20.2-46c-14.4-38.2-34.9-71.3-36.4-74c-2.3-4.2-1.2-7.1,0.9-9l1.5-1.4
			l-1.8-0.4c-8.9,0-34.3,0-42.9,0C338.8,118.3,334.7,123,337.8,128.6"/>
	</defs>
	<clipPath id="SVGID_2_">
		<use xlink:href="#SVGID_1_"  style="overflow:visible;"/>
	</clipPath>
	
		<linearGradient id="SVGID_3_" gradientUnits="userSpaceOnUse" x1="-384.0124" y1="678.001" x2="-380.6165" y2="678.001" gradientTransform="matrix(69.2474 0 0 -69.2474 26804.0215 47137.7383)">
		<stop  offset="0" style="stop-color:#0091DB"/>
		<stop  offset="0.6" style="stop-color:#00348C"/>
		<stop  offset="1" style="stop-color:#00348C"/>
	</linearGradient>
	<rect x="333.2" y="118.3" class="st0" width="93.9" height="139.3"/>
</g>
<g>
	<defs>
		<path id="SVGID_4_" d="M208.7,128.2c-5.5,62.3,66.5,165.2,165.6,173.9c76.7,6.7,85.3-54.7,54.1-114.2l-1.3-1.5l-0.2,1.4
			c18.7,42.3,7.6,79.7-46.1,75c-74.4-6.5-139.7-81-143.4-132.1c-2.4-32.5,21.9-49,53.6-46.3c12.9,1.1,28.6,5.8,43.5,12.4l1.5-0.3
			l-1.2-1.3c-19.4-10.1-39.1-16.5-56.9-18c-2.7-0.2-5.3-0.3-7.9-0.3C238,76.9,211.7,94.4,208.7,128.2"/>
	</defs>
	<clipPath id="SVGID_5_">
		<use xlink:href="#SVGID_4_"  style="overflow:visible;"/>
	</clipPath>
	
		<linearGradient id="SVGID_6_" gradientUnits="userSpaceOnUse" x1="-384.0123" y1="677.9495" x2="-380.6163" y2="677.9495" gradientTransform="matrix(69.2524 0 0 -69.2524 26805.9219 47142.4805)">
		<stop  offset="0" style="stop-color:#0091DB"/>
		<stop  offset="0.6" style="stop-color:#00348C"/>
		<stop  offset="1" style="stop-color:#00348C"/>
	</linearGradient>
	<rect x="203.2" y="76.9" class="st1" width="256.4" height="231.9"/>
</g>
<path class="st2" d="M203.4,349.7l18.9,0l-13.4,41.9h-18.9L203.4,349.7z M227.4,336.9c-2.2,6.9-8.2,9.8-13.6,9.8
	c-5.4,0-9.4-3.1-7.2-9.9c1.9-6.1,7.6-9.7,13.5-9.7C226.1,327.1,229.3,330.8,227.4,336.9 M252,349.7l-18.5,0L220,391.6h18.9l6.6-20.3
	c0.8-2.4,1.9-5.9,5.1-5.9c3.2,0,2.1,3.5,1.3,5.9l-6.6,20.3h18.9l8.2-25.5c3-9.3,1.7-17.1-8-17.2c-6.1,0-9.8,3-15,7.6H249L252,349.7z
	 M451.7,349.7l-18.5,0l-13.5,41.9h18.9l6.6-20.3c0.8-2.4,1.9-5.9,5.1-5.9c3.2,0,2.1,3.5,1.3,5.9l-6.6,20.3h18.9l8.3-25.5
	c3-9.3,1.7-17.1-8-17.2c-6.1,0-9.9,3-15,7.6h-0.4L451.7,349.7z M385.4,371.6c1.3-4.1,5-7.6,9-7.6c4,0.1,5.7,3.2,4.3,7.5
	c-1.4,4.3-4.6,8.4-9.4,8.4C384.8,379.8,384,376,385.4,371.6 M390.7,391.6l18.5,0l13.5-41.9l-18.5,0.1l-1,5h-0.5
	c-1.4-4.1-4.7-5.9-9.5-6c-11-0.1-20.6,11.4-24,22c-3.3,10.2-1.1,21.7,9.5,21.8c5.3,0.1,9.2-2.5,13.9-6.4h0.4L390.7,391.6z
	 M494.8,372.6c1.4-4.4,5.4-8,9.5-7.9c4.2,0,5.3,3.9,4,8.2c-1.3,4.2-4.6,7.8-8.9,7.7C495,380.5,493.4,377.1,494.8,372.6 M532.1,349.7
	l-18.3,0l-1.4,6h-0.5c-1.2-4.4-4.1-7-9.1-7c-10.8-0.1-20.4,11.3-23.8,21.7c-3.3,10.4-1,22,9.7,22c4.5,0,10.3-2.3,13.7-6.9h0.5
	l-1.7,4.3c-2.1,5.2-6.5,9.2-11.6,9.2c-4.6,0-9.4-1.9-12-5.2l-8.7,14.1l1.7,0.7c4.9,2.2,9.6,3.4,15.7,3.4
	c13.6,0.1,28.1-6.5,33.4-22.8L532.1,349.7z M183.4,327.8c-0.7-0.1-3.7-0.5-3.7-1.2c-1.7-1-3.6-0.4-6-0.7c-1.7,1.3-2.5-1.3-5,0.3
	c-3.6-0.4-12.6,1-12.2,2.4c0.8,0.9,3.6,0.5,5.9,2c3.1,1.2-1.1,25.2-1.1,25.2c-0.2,12.5-9.6,30-11.7,32.2c-0.7,1.8-5,6.4-5.2,7.7
	c-0.9,1.8-3.4,3.6-5.3,4.9c-3.9,2.4-6.9,5.5-10.9,7.5l-0.8,0.3c-2.2,1.7-4.5,3.1-7,4.4c5.7-0.7,11-3.6,16.6-5.4
	c2.3-1.3,3.6-0.4,6.9-2.3c3-1.2,6.7-3,9.9-4.5c2.2-1.7,4.1-2.5,6.6-3.3c2.9-0.9,2.8-2.3,4.7-2.7c1.4-1,6-4.1,9.3-6.8
	c0,0.1,5.3-5.9,6.9-9.9c6.8-13.2,9.1-26.1,12.6-38.9c-0.6-0.4,0.5-1.6-0.3-2c2-1.8-0.9-2.6-0.5-4.2c0,0-1.2-0.3-0.8-1
	c-0.6-1.2-1.9-1.9-3.1-2.6C187.6,328.1,183.4,327.8,183.4,327.8 M347.9,349.7l18.9,0l-13.5,41.9h-18.9L347.9,349.7z M372,336.9
	c-2.2,6.9-8.2,9.8-13.6,9.8c-5.4,0-9.4-3.1-7.2-9.9c2-6.1,7.6-9.7,13.6-9.7C370.7,327.1,373.9,330.8,372,336.9 M329,327.8
	c-0.7-0.1-3.7-0.5-3.7-1.2c-1.7-1-3.6-0.4-6-0.7c-1.7,1.3-2.5-1.3-5,0.3c-3.6-0.4-12.6,1-12.2,2.4c0.8,0.9,3.5,0.5,5.9,2
	c3.1,1.2-1.1,25.2-1.1,25.2c-0.1,12.5-9.5,30-11.6,32.2c-0.7,1.8-5,6.4-5.1,7.7c-0.9,1.8-3.4,3.6-5.3,4.9c-3.9,2.4-6.9,5.5-10.9,7.5
	l-0.8,0.3c-2.2,1.7-4.5,3.1-7,4.4c5.7-0.7,11-3.6,16.6-5.4c2.3-1.3,3.6-0.4,6.9-2.3c3-1.2,6.7-3,9.9-4.5c2.3-1.7,4.1-2.5,6.6-3.3
	c2.9-0.9,2.8-2.3,4.7-2.7c1.4-1,6-4.1,9.3-6.8c0,0.1,5.3-5.9,6.9-9.9c6.8-13.2,9.1-26.1,12.6-38.9c-0.6-0.4,0.5-1.6-0.4-2
	c2-1.8-0.9-2.6-0.5-4.2c0,0-1.2-0.3-0.8-1c-0.6-1.2-1.9-1.9-3.1-2.6C333.2,328.1,329,327.8,329,327.8 M181.8,426.8h-9.1l-11.4,35
	h9.1L181.8,426.8z M193.2,438h-8.4l-7.8,23.8h8.5l4-12.3c1-3,2.8-5.5,6.2-5.5c4.2,0,2.5,4,1.8,6.3l-3.8,11.6h8.5l4.8-14.7
	c1.9-5.9,0.7-9.9-5.7-9.9c-3.3,0-6,1-8.9,3.9h-0.1L193.2,438z M223.4,445h4.8l2.3-7h-4.8l2.3-7.1h-8.5l-2.3,7.1h-2.8l-2.3,7h2.7
	l-5.5,16.9h8.4L223.4,445z M238.2,446.5c1.3-2.5,3.8-3.8,6.3-3.8c2.3,0,3.9,1.5,3.6,3.8H238.2z M254.5,450.4
	c2.7-8.1-0.5-13.2-8.7-13.2c-7.8,0-14.7,4.8-17.3,12.7c-2.7,8.2,1.8,12.7,9.7,12.7c5.4,0,11.6-2.5,14.8-8.2h-8.1
	c-1.5,1.6-2.9,2.2-4.8,2.2c-3.5,0-4.7-1.8-3.6-5.3h17.8L254.5,450.4z M271.8,438h-8.4l-7.8,23.8h8.5l3.1-9.6
	c1.3-4.1,3.5-7.2,8.2-7.2c1.3,0,2.4,0.1,3.3,0.8l2.7-8.1h-1.6c-3.3,0-6.5,1.3-9.1,4.2h-0.1L271.8,438z M293.8,438h-8.5l-7.8,23.8
	h8.4l4.1-12.3c1-3,2.8-5.5,6.2-5.5c4.2,0,2.5,4,1.8,6.3l-3.8,11.6h8.5l4.8-14.7c1.9-5.9,0.7-9.9-5.7-9.9c-3.3,0-6,1-8.9,3.9h-0.1
	L293.8,438z M327.3,444.6c3.4,0,4.6,2.5,3.7,5.4c-1,3-3.7,5.3-7.2,5.3c-3.4,0-4.7-2.3-3.7-5.3C321.1,447,323.9,444.6,327.3,444.6
	 M343,438h-8.5l-0.7,2.3c-1.1-2.1-3.6-3.1-6.4-3.1c-7,0-13.9,5.8-16.1,12.7c-2.2,6.8,0.8,12.7,7.9,12.7c2.8,0,6.1-1.1,8.3-3.4h0.1
	l-0.9,2.6h8.4L343,438z M356.6,445h4.8l2.3-7h-4.8l2.3-7.1h-8.5l-2.3,7.1h-2.7l-2.3,7h2.7l-5.5,16.9h8.5L356.6,445z M367.9,461.8
	h-8.5l7.8-23.8h8.5L367.9,461.8z M379.2,428.8c-0.9,2.6-3.7,4.8-6.3,4.8c-2.6,0-4.1-2.1-3.2-4.8c0.8-2.6,3.7-4.7,6.3-4.7
	C378.6,424.1,380,426.2,379.2,428.8 M392.7,444.6c3.4,0,4.6,2.5,3.7,5.4c-1,3-3.7,5.3-7.2,5.3c-3.4,0-4.7-2.3-3.7-5.3
	C386.4,447,389.2,444.6,392.7,444.6 M395.1,437.2c-7.7,0-15.9,4.6-18.5,12.7c-2.7,8.2,2.6,12.7,10.2,12.7c7.7,0,15.8-4.6,18.5-12.7
	C407.9,441.8,402.7,437.2,395.1,437.2 M422.3,438h-8.5l-7.7,23.8h8.4l4.1-12.3c1-3,2.8-5.5,6.2-5.5c4.2,0,2.5,4,1.8,6.3l-3.8,11.6
	h8.5l4.8-14.7c1.9-5.9,0.7-9.9-5.7-9.9c-3.3,0-6,1-8.9,3.9h-0.1L422.3,438z M455.8,444.6c3.4,0,4.6,2.5,3.7,5.4
	c-1,3-3.8,5.3-7.2,5.3c-3.4,0-4.7-2.3-3.7-5.3C449.6,447,452.4,444.6,455.8,444.6 M471.6,438h-8.4l-0.8,2.3
	c-1.1-2.1-3.6-3.1-6.4-3.1c-7.1,0-13.8,5.8-16.1,12.7c-2.2,6.8,0.8,12.7,7.9,12.7c2.8,0,6-1.1,8.3-3.4h0.1l-0.8,2.6h8.4L471.6,438z
	 M491.4,423.3h-8.5l-12.6,38.5h8.4L491.4,423.3z M555.7,485.4H97.1v3.5h458.6V485.4z M266.4,525l-18.4-2v9.1l18.4,2.1V525z
	 M266.4,505.4l-18.4-2v9.1l18.4,2.1V505.4z M301.5,567.4V513h17.2v-6.7h-47v6.7h17.6v54.4h-20.2v6.7h51.7v-6.7H301.5z M248.1,564.8
	v11.9c11.3-2.8,17-12.8,19.7-31.9h-9.6C256.2,557.1,253.2,561.3,248.1,564.8 M330.1,575.5h73v-73.1h-73V575.5z M392.2,569H341v-60
	h51.2V569z M388.4,554H385l-2.7-9.5h-7.4l1.3,9.5h-5.4v-13.7h13.1v-6.5h-13.1v-9.9h16v-6.2h-41v6.2h14.6v9.9H348v6.5h12.3V554h-15.4
	v6.5h43.5V554z M222.8,545v-6.1h13.7v-30.8h-15.9c1.1-2.3,2.4-5.3,3.2-7.6h-11c-0.5,2.5-1.2,5.1-1.7,7.6h-12.8v30.8H212v6.1h-15.6
	v28.6h10.2v-21.9h5.4v25.2h10.8v-25.2h5.8v12c0,1.2-0.9,2.1-2,2.1h-1.9l0.6,7.4h6.8c4.4,0,6.7-2.8,6.7-6.9V545H222.8z M208.4,514.3
	h17.8v6h-17.8V514.3z M208.4,526.3h17.8v6.2h-17.8V526.3z M185.2,501.7H173c-2.7,10-5.9,19-11.7,23.9v8.7c2.3-1,4.5-2.3,6.6-3.9h5.5
	v9.9h-11v6.5h11v16.5c-0.8,0-1.7,0-2.6,0v7.8c9.6,0,16.7-1.6,22.8-4v-6.8c-2.8,1.1-5.9,1.9-9.4,2.4v-15.8h9v-6.5h-9v-9.9h9.8v-6.5
	h-19.4c2.1-2.5,3.9-5.3,5.5-8.4h15V509H183C183.9,506.6,184.6,504.2,185.2,501.7 M487.5,532.6V526h-45v6.6h17.5v30.8
	c0,2.7-0.9,3.9-3.8,3.9h-4.6l0.9,8.4h10.1c6.2,0,8.7-2.5,8.7-8.9v-34.2H487.5z M484.5,505h-38.6v6.6h38.6V505z M447.3,543
	c-1.7,9.4-4,15.8-9.1,20v7.8c10.4-3.2,16.7-12.9,19.6-27.8H447.3z M482.3,543h-8.1c1.3,13.9,6.7,25.5,16.2,28.7v-12
	C486.5,556,483.2,550.8,482.3,543 M441.7,546.3c0-8.5-1.5-11.1-5.5-18.1l5.5-19.3V503H415v72.6h10.4v-16h3
	C437.1,559.6,441.7,557.3,441.7,546.3 M425.4,552.8v-43.9h5.7l-3.1,19.9c3.3,6.7,3.4,9.9,3.4,14.8c0,6.6-0.3,9.3-4.4,9.3H425.4z"/>
</svg>
