<svg xmlns="http://www.w3.org/2000/svg" width="600" height="268.5" viewBox="0 0 600 268.5">
  <g id="warwick" transform="translate(-20.4 -187.9)">
    <g id="Group_5" data-name="Group 5">
      <g id="Group_3" data-name="Group 3">
        <path id="Path_9" data-name="Path 9" d="M71.9,331.8,54.5,392.5H44L20.4,318.7H33.9l20,62.5,17.8-62.5h9.6l19.9,62.5,18-62.5h4.2L102,392.5H91.5Z" fill="#3b345d"/>
        <path id="Path_10" data-name="Path 10" d="M181.7,369.5H149.6l-8.5,23h-4.4l27.6-73.8h11.2l28.9,73.8H190.5Zm-16.5-42.3L150.9,366h29.4Z" fill="#3b345d"/>
        <path id="Path_11" data-name="Path 11" d="M239.5,358.1v34.3h-13V318.6h23.2c21.1,0,32,6.5,32,19.5,0,10.7-9.3,16.6-21.7,17.9v.2c9.9,1.1,17,5,19.6,16.1l4.8,20H271l-4.8-21.2c-2.6-10.9-7.5-13.2-16.4-13.2H239.6v.2Zm0-3.5h10.1c13,0,18.6-6.6,18.6-16.3,0-9.8-5.7-16.1-18.4-16.1H239.6l-.1,32.4Z" fill="#3b345d"/>
        <path id="Path_12" data-name="Path 12" d="M353.6,331.8l-17.4,60.7H325.6L302,318.7h13.5l20,62.5,17.8-62.5h9.6l19.9,62.5,18-62.5H405l-21.4,73.8H373Z" fill="#3b345d"/>
        <path id="Path_13" data-name="Path 13" d="M427,318.7h13v73.8H427Z" fill="#3b345d"/>
        <path id="Path_14" data-name="Path 14" d="M465.1,355c0-23.7,16.6-38,36-38,17.1,0,29.7,9,31.8,23.7H521c-1.5-13.3-8.4-20.5-19.8-20.5-14.6,0-21.7,12.5-21.7,34.6,0,22.5,6.8,35.2,21.7,35.2,11.3,0,18.3-7.6,19.9-20.5H533c-2.1,14.6-14.4,23.7-31.9,23.7C480.8,393.5,465.1,378.9,465.1,355Z" fill="#3b345d"/>
        <path id="Path_15" data-name="Path 15" d="M582.7,353.2l-11.8,11.6v27.6h-13V318.6h13v40.8l41.4-40.8H618L592.1,344l28.3,48.5H605.5Z" fill="#3b345d"/>
      </g>
      <g id="Group_4" data-name="Group 4">
        <path id="Path_16" data-name="Path 16" d="M321,192.4h-.6a1.74,1.74,0,0,0-.7.3,4.784,4.784,0,0,0-1.4,2.8c-.4,2.2,1.1,7.5,2.3,11.5l.1-.4.1.3c1.3-4.1,2.8-9.3,2.3-11.5-.2-1.4-.7-2.5-1.4-2.8,0-.1-.3-.2-.7-.2m-43.8,1.2c-.9,0-2.1,1-2.8,2.2-1.5,2.7,0,6.3,1.5,9.5a54.051,54.051,0,0,0,3,5.3v-1.1h0v-7.6l.1-1.7c.1-2.2.2-4.7-.7-6.1a1.538,1.538,0,0,0-1.1-.5m85.4,16v1.1c1.2-2,2.3-3.9,3-5.3,1.6-3.2,3-6.8,1.5-9.5a3.683,3.683,0,0,0-2.8-2.2c-.1,0-.5,0-1.1.7-1,1.4-.9,3.8-.7,6.1l.1,1.7v7.4Zm-18.7,34.9a71.772,71.772,0,0,0,14.2,9V229a75.137,75.137,0,0,1-14.2,15.5m-60.3-15v24a72.519,72.519,0,0,0,13.6-8.5,60.232,60.232,0,0,1-13.6-15.5m21,15.2a131.212,131.212,0,0,0,11.5,7c1.6,1,3.2,1.8,4.7,2.7a122.312,122.312,0,0,0,15.7-10.1,68,68,0,0,1-15.6-22.5l-.2.6-.2-.6a63.984,63.984,0,0,1-15.9,22.9m58.1,15.7-3.1-1.1c-.4-.1-9.5-3.3-19.5-11.7a127.06,127.06,0,0,1-18.3,11.7l-1.2.5-1.1-.6c-1.8-1.1-3.7-2.1-5.7-3.3A138.876,138.876,0,0,1,301,248a70.394,70.394,0,0,1-19.1,11.4l-3.1,1.1v-40c-1.2-2.2-2.6-4.8-3.9-7.1-1.3-2.2-2.5-4.3-3.2-5.8-1.3-2.6-4.3-8.6-1.4-13.8,1.3-2.3,3.8-4.7,6.9-4.7a6.18,6.18,0,0,1,4.8,2.6c2,2.7,1.8,6.2,1.7,9.1l-.1,1.6v17.1a10.376,10.376,0,0,1,.4,1,54.771,54.771,0,0,0,16.8,21.7,62.093,62.093,0,0,0,17.5-27.4c-.1-.3-.3-.9-.5-1.6-2.6-7.1-4.8-14.4-4.2-18.3.5-2.9,1.8-5,3.7-6.1a10.775,10.775,0,0,1,2.9-.9h1a6.536,6.536,0,0,1,3,.9c1.9,1.1,3.2,3.1,3.7,6.1.7,3.9-1.5,11.1-4.1,18.2a12.806,12.806,0,0,0-.5,1.7,62.935,62.935,0,0,0,17.1,27c8.3-6.9,14.2-14.1,17.3-21.2a10.376,10.376,0,0,0,.4-1c0-8.6,0-15.6-.1-17.1l-.1-1.6c-.1-2.9-.3-6.4,1.7-9.1a6.044,6.044,0,0,1,4.8-2.6c3,0,5.7,2.3,6.9,4.7,2.8,5.1-.2,11.2-1.4,13.8-.7,1.5-1.9,3.5-3.2,5.8a72.33,72.33,0,0,0-3.9,7.1Z" fill="#3b345d"/>
      </g>
    </g>
    <g id="Group_6" data-name="Group 6">
      <path id="Path_17" data-name="Path 17" d="M97.6,433.8h2.5v9.8h12.8v-9.8h2.5V456h-2.5V446H100v10H97.5V433.8Z" fill="#3b345d"/>
      <path id="Path_18" data-name="Path 18" d="M125,444.9h0a11.3,11.3,0,1,1,22.6-.1v.1a11.182,11.182,0,0,1-11.3,11.4A11.063,11.063,0,0,1,125,444.9Zm19.9,0h0c0-5.1-3.6-9.2-8.7-9.2s-8.6,4.1-8.6,9.1v.1c0,5,3.6,9.2,8.7,9.2S144.9,450,144.9,444.9Z" fill="#3b345d"/>
      <path id="Path_19" data-name="Path 19" d="M161.4,436.2H154v-2.3h17.4v2.3h-7.5V456h-2.6V436.2Z" fill="#3b345d"/>
      <path id="Path_20" data-name="Path 20" d="M180.4,433.8h16V436H182.9v7.6h12v2.2h-12v7.8h13.6v2.2H180.3V433.7h.1Z" fill="#3b345d"/>
      <path id="Path_21" data-name="Path 21" d="M205.9,433.8h2.5v19.8h12.5v2.3H206V433.8Z" fill="#3b345d"/>
      <path id="Path_22" data-name="Path 22" d="M228.3,452.8l1.6-1.8a10.417,10.417,0,0,0,7.6,3.1c3,0,4.9-1.6,4.9-3.7v-.1c0-2-1.1-3.2-5.8-4.2-5.1-1.1-7.5-2.8-7.5-6.4v-.1c0-3.5,3.1-6.1,7.2-6.1a11.827,11.827,0,0,1,7.8,2.8l-1.5,1.9a9.792,9.792,0,0,0-6.4-2.5c-2.9,0-4.7,1.6-4.7,3.6v.1c0,2.1,1.2,3.3,6,4.3,4.9,1.1,7.2,2.9,7.2,6.3v.1c0,3.8-3.2,6.3-7.6,6.3A13.731,13.731,0,0,1,228.3,452.8Z" fill="#3b345d"/>
      <path id="Path_23" data-name="Path 23" d="M276.3,433.6h2.3l10.1,22.3H286l-2.6-5.9h-12l-2.7,5.9h-2.6Zm6.1,14.2-5-11.3-5.1,11.3Z" fill="#3b345d"/>
      <path id="Path_24" data-name="Path 24" d="M297.4,433.8h2.3l14,17.8V433.8h2.5V456h-2l-14.3-18.1V456h-2.5V433.8Z" fill="#3b345d"/>
      <path id="Path_25" data-name="Path 25" d="M326.7,433.8h7.7c6.9,0,11.7,4.8,11.7,11v.1c0,6.2-4.8,11.1-11.7,11.1h-7.7Zm2.4,2.4v17.6h5.2c5.7,0,9.2-3.8,9.2-8.7V445c0-4.9-3.6-8.7-9.2-8.7h-5.2Z" fill="#3b345d"/>
      <path id="Path_26" data-name="Path 26" d="M369.4,433.8h9.5a9.023,9.023,0,0,1,6.3,2.2,6.2,6.2,0,0,1,1.7,4.4v.1c0,3.6-2.6,5.9-6,6.5l6.8,9.1h-3.1l-6.4-8.6H372v8.6h-2.5V433.8h-.1Zm9.3,11.3c3.3,0,5.7-1.7,5.7-4.6v-.1c0-2.8-2.1-4.4-5.7-4.4h-6.8v9h6.8Z" fill="#3b345d"/>
      <path id="Path_27" data-name="Path 27" d="M396.6,433.8h16V436H399.1v7.6h12v2.2h-12v7.8h13.6v2.2H396.5V433.7h.1Z" fill="#3b345d"/>
      <path id="Path_28" data-name="Path 28" d="M420.6,452.8l1.6-1.8a10.417,10.417,0,0,0,7.6,3.1c3,0,4.9-1.6,4.9-3.7v-.1c0-2-1.1-3.2-5.8-4.2-5.1-1.1-7.5-2.8-7.5-6.4v-.1c0-3.5,3.1-6.1,7.2-6.1a11.826,11.826,0,0,1,7.8,2.8l-1.4,1.9a9.792,9.792,0,0,0-6.4-2.5c-2.9,0-4.7,1.6-4.7,3.6v.1c0,2.1,1.2,3.3,6,4.3,4.9,1.1,7.2,2.9,7.2,6.3v.1c0,3.8-3.2,6.3-7.6,6.3A13.986,13.986,0,0,1,420.6,452.8Z" fill="#3b345d"/>
      <path id="Path_29" data-name="Path 29" d="M445.7,444.9h0a11.3,11.3,0,1,1,22.6-.1v.1a11.3,11.3,0,1,1-22.6,0Zm20,0h0c0-5.1-3.6-9.2-8.7-9.2s-8.6,4.1-8.6,9.1v.1c0,5,3.6,9.2,8.7,9.2S465.7,450,465.7,444.9Z" fill="#3b345d"/>
      <path id="Path_30" data-name="Path 30" d="M477.9,433.8h9.5a9.023,9.023,0,0,1,6.3,2.2,6.2,6.2,0,0,1,1.7,4.4v.1c0,3.6-2.6,5.9-6,6.5l6.8,9.1h-3.1l-6.4-8.6h-6.3v8.6H478V433.8h-.1Zm9.2,11.3c3.3,0,5.7-1.7,5.7-4.6v-.1c0-2.8-2.1-4.4-5.7-4.4h-6.8v9h6.8Z" fill="#3b345d"/>
      <path id="Path_31" data-name="Path 31" d="M510.6,436.2h-7.5v-2.3h17.4v2.3H513V456h-2.6V436.2Z" fill="#3b345d"/>
      <path id="Path_32" data-name="Path 32" d="M527.6,452.8l1.6-1.8a10.417,10.417,0,0,0,7.6,3.1c3,0,4.9-1.6,4.9-3.7v-.1c0-2-1.1-3.2-5.8-4.2-5.1-1.1-7.5-2.8-7.5-6.4v-.1c0-3.5,3.1-6.1,7.2-6.1a11.826,11.826,0,0,1,7.8,2.8l-1.5,1.9a9.792,9.792,0,0,0-6.4-2.5c-2.9,0-4.7,1.6-4.7,3.6v.1c0,2.1,1.2,3.3,6,4.3,4.9,1.1,7.2,2.9,7.2,6.3v.1c0,3.8-3.2,6.3-7.6,6.3A13.946,13.946,0,0,1,527.6,452.8Z" fill="#3b345d"/>
    </g>
  </g>
</svg>
